#!OML:ASF F:\VICON\USERDATA\INSTALL\rory3\rory3.ASF
:FULLY-SPECIFIED
:DEGREES
316
root 4.46229 16.5633 -15.5219 28.0806 6.50093 -3.74899
lowerback -14.7964 0.210401 5.13038
upperback -10.2946 -0.244179 4.02742
thorax -2.65405 -0.240284 1.31853
lowerneck -11.6976 -3.31521 -0.70122
upperneck 41.1415 -5.09687 0.241205
head 16.9288 -2.14965 -0.633223
rclavicle 3.24516e-014 -3.57812e-014
rhumerus -46.1259 -13.5158 -65.5519
rradius 5.8583
rwrist 10.1311
rhand -27.6828 26.1135
rfingers 7.12502
rthumb -1.07956 -3.86352
lclavicle 3.24516e-014 -3.57812e-014
lhumerus -55.4295 -6.17989 94.1301
lradius 29.5806
lwrist 2.71003
lhand -0.880884 16.3636
lfingers 7.12502
lthumb 24.7464 44.7828
rfemur -43.5024 5.257 33.2105
rtibia 30.8521
rfoot -29.4446 -31.8873
rtoes 21.3787
lfemur -21.9566 21.6117 -28.4087
ltibia 41.5657
lfoot 41.6614 30.5054
ltoes 6.15413
317
root 4.46067 16.56 -15.5316 28.1183 6.61324 -3.70887
lowerback -15.1456 0.119755 4.92052
upperback -10.0858 -0.380823 4.18211
thorax -2.24097 -0.28603 1.57794
lowerneck -11.7002 -3.30182 -0.746557
upperneck 40.9945 -5.02788 0.17524
head 16.8454 -2.13949 -0.64022
rclavicle -1.81391e-015 -1.59028e-015
rhumerus -45.3975 -13.9255 -65.9707
rradius 5.46768
rwrist 8.84213
rhand -27.051 25.5326
rfingers 7.12502
rthumb -0.469385 -4.44661
lclavicle -1.81391e-015 -1.59028e-015
lhumerus -55.1464 -6.06996 94.3423
lradius 29.7025
lwrist 2.78901
lhand -0.734289 16.6873
lfingers 7.12502
lthumb 24.8869 45.0873
rfemur -43.5139 4.85961 33.3972
rtibia 30.7756
rfoot -29.2686 -31.6224
rtoes 21.118
lfemur -22.114 21.446 -28.4344
ltibia 41.7584
lfoot 40.8273 31.2971
ltoes 8.83286
318
root 4.48251 16.5451 -15.5011 26.947 5.94434 -4.12508
lowerback -14.9399 0.404915 5.2983
upperback -9.31679 -0.0878039 4.22347
thorax -1.52332 -0.139514 1.43876
lowerneck -11.9263 -3.3023 -0.687125
upperneck 40.8377 -5.01154 0.10973
head 16.8104 -2.13222 -0.680205
rclavicle 4.39811e-015 3.18055e-015
rhumerus -44.5219 -14.5069 -66.4808
rradius 4.84936
rwrist 7.94639
rhand -26.3817 25.3728
rfingers 7.12502
rthumb 0.177067 -4.60691
lclavicle 4.39811e-015 3.18055e-015
lhumerus -54.5969 -6.02888 94.4262
lradius 29.6426
lwrist 2.6336
lhand -0.505296 16.9467
lfingers 7.12502
lthumb 25.1063 45.3161
rfemur -41.9074 3.48948 34.4112
rtibia 30.6743
rfoot -28.5642 -29.8758
rtoes 20.2229
lfemur -20.6434 22.3388 -27.8801
ltibia 41.8158
lfoot 43.4292 25.2294
ltoes -4.36391
319
root 4.46302 16.5499 -15.5473 28.0351 6.74503 -3.88996
lowerback -15.6565 0.135625 5.05234
upperback -9.6673 -0.445184 4.30971
thorax -1.52339 -0.307302 1.6234
lowerneck -12.0137 -3.29459 -0.555968
upperneck 40.8252 -4.99487 0.00222908
head 16.8156 -2.11904 -0.750464
rclavicle -1.08835e-014 2.46493e-014
rhumerus -44.1568 -14.9038 -66.888
rradius 4.44568
rwrist 7.62532
rhand -25.8833 25.5373
rfingers 7.12502
rthumb 0.658415 -4.44146
lclavicle -1.08835e-014 2.46493e-014
lhumerus -54.4076 -6.1116 94.5962
lradius 29.4959
lwrist 2.45457
lhand -0.528619 16.6702
lfingers 7.12502
lthumb 25.084 45.0427
rfemur -43.2162 4.05272 34.029
rtibia 30.6302
rfoot -29.0063 -30.3568
rtoes 21.8065
lfemur -22.3267 21.3645 -28.28
ltibia 42.0673
lfoot 45.7806 26.0391
ltoes -5.07064
320
root 4.46181 16.5535 -15.5496 27.9132 6.73894 -3.99466
lowerback -15.5487 0.160648 5.16013
upperback -9.66506 -0.417084 4.3115
thorax -1.57945 -0.298654 1.56905
lowerneck -11.9737 -3.30305 -0.506235
upperneck 40.8622 -5.02098 -0.00753248
head 16.8238 -2.12332 -0.767762
rclavicle 1.27222e-014 -3.49861e-014
rhumerus -44.0464 -15.2234 -67.2518
rradius 4.33549
rwrist 7.79177
rhand -25.0631 25.0887
rfingers 7.12502
rthumb 1.45058 -4.88612
lclavicle 1.27222e-014 -3.49861e-014
lhumerus -54.4853 -6.19923 94.7135
lradius 29.5833
lwrist 2.39209
lhand -0.689338 16.369
lfingers 7.12502
lthumb 24.9299 44.763
rfemur -43.1273 4.08879 34.1081
rtibia 30.6357
rfoot -28.1756 -30.6313
rtoes 20.5417
lfemur -22.249 21.474 -28.148
ltibia 42.1007
lfoot 42.0521 29.3083
ltoes 3.32681
321
root 4.46058 16.5616 -15.5521 27.8519 6.81601 -3.96285
lowerback -15.4425 0.0986885 5.15681
upperback -9.70762 -0.486787 4.30422
thorax -1.68156 -0.335834 1.55442
lowerneck -11.9013 -3.30379 -0.553462
upperneck 40.9087 -5.05251 0.091296
head 16.8377 -2.13052 -0.719902
rclavicle -1.04859e-014 3.65764e-014
rhumerus -44.2011 -15.367 -67.5308
rradius 4.99487
rwrist 8.26275
rhand -23.5061 23.7416
rfingers 7.12502
rthumb 2.95434 -6.21768
lclavicle -1.04859e-014 3.65764e-014
lhumerus -54.575 -6.32238 94.8717
lradius 29.6714
lwrist 2.60333
lhand -0.935373 15.8632
lfingers 7.12502
lthumb 24.6942 44.2896
rfemur -43.2302 4.13481 34.0191
rtibia 30.6908
rfoot -27.3719 -31.3461
rtoes 18.7698
lfemur -22.172 21.4494 -28.1349
ltibia 42.0624
lfoot 42.0381 29.3023
ltoes 3.4854
322
root 4.45932 16.5676 -15.5557 27.8234 6.91735 -3.89464
lowerback -15.4039 0.00606929 5.09101
upperback -9.74203 -0.59554 4.34155
thorax -1.73804 -0.387803 1.61645
lowerneck -11.8314 -3.28085 -0.605461
upperneck 40.9807 -5.00859 0.0979691
head 16.862 -2.1195 -0.699719
rclavicle 1.70955e-014 -3.97569e-015
rhumerus -44.4454 -15.3329 -67.6327
rradius 5.93863
rwrist 9.34034
rhand -21.7957 22.2854
rfingers 7.12502
rthumb 4.60608 -7.64451
lclavicle 1.70955e-014 -3.97569e-015
lhumerus -54.538 -6.60397 95.2843
lradius 29.4126
lwrist 2.8964
lhand -1.45151 15.2525
lfingers 7.12502
lthumb 24.1994 43.7458
rfemur -43.3236 4.06695 33.9571
rtibia 30.7624
rfoot -27.0746 -31.7499
rtoes 17.5553
lfemur -22.1301 21.4439 -28.1636
ltibia 42.0321
lfoot 44.2098 24.8287
ltoes -6.78215
323
root 4.48521 16.5618 -15.516 26.6371 6.24146 -4.37819
lowerback -14.809 0.295633 5.64521
upperback -9.27236 -0.2657 4.35638
thorax -1.55281 -0.240177 1.36097
lowerneck -11.895 -3.2596 -0.473268
upperneck 41.0681 -4.93826 -0.100196
head 16.9124 -2.09518 -0.802855
rclavicle -1.54555e-014 3.26007e-014
rhumerus -44.503 -15.331 -67.6733
rradius 6.6491
rwrist 10.9622
rhand -19.9263 21.2048
rfingers 7.12502
rthumb 6.411 -8.6782
lclavicle -1.54555e-014 3.26007e-014
lhumerus -54.4911 -7.05727 95.8118
lradius 29.2416
lwrist 3.08452
lhand -1.65498 15.2334
lfingers 7.12502
lthumb 24.0043 43.7525
rfemur -41.8061 2.96807 34.8258
rtibia 30.7507
rfoot -26.5156 -30.338
rtoes 16.3444
lfemur -20.4017 22.4064 -27.5175
ltibia 41.8008
lfoot 37.9357 34.6274
ltoes 15.7465
324
root 4.4628 16.5702 -15.5642 27.4835 7.32279 -4.12373
lowerback -15.1726 -0.0990762 5.41914
upperback -9.64243 -0.761387 4.49805
thorax -1.76044 -0.480834 1.57572
lowerneck -11.9071 -3.27089 -0.455539
upperneck 41.0922 -4.92901 -0.183202
head 16.9244 -2.09972 -0.84237
rclavicle -1.26725e-015 -4.77083e-015
rhumerus -44.6791 -15.2115 -67.581
rradius 7.70065
rwrist 12.808
rhand -17.5137 20.7064
rfingers 7.12502
rthumb 8.73962 -9.09262
lclavicle -1.26725e-015 -4.77083e-015
lhumerus -54.4561 -7.34339 96.1825
lradius 29.2945
lwrist 3.04762
lhand -1.31604 15.7864
lfingers 7.12502
lthumb 24.3293 44.2623
rfemur -42.932 3.53198 34.4526
rtibia 30.7012
rfoot -27.4574 -31.2354
rtoes 18.4182
lfemur -21.6879 21.2996 -27.6362
ltibia 42.0412
lfoot 34.865 38.2586
ltoes 23.3385
325
root 4.48218 16.5616 -15.532 26.3482 6.7473 -4.55337
lowerback -14.599 0.119322 5.84776
upperback -9.18886 -0.508923 4.53904
thorax -1.58142 -0.365483 1.40803
lowerneck -11.9481 -3.32326 -0.559563
upperneck 41.1731 -5.00393 -0.136626
head 16.9866 -2.13866 -0.818886
rclavicle 2.29596e-014 -1.51076e-014
rhumerus -44.7434 -15.0412 -67.4739
rradius 8.49693
rwrist 14.9269
rhand -15.4415 20.965
rfingers 7.12502
rthumb 10.7389 -8.74047
lclavicle 2.29596e-014 -1.51076e-014
lhumerus -54.3537 -7.43811 96.3728
lradius 29.2971
lwrist 2.92081
lhand -1.18616 15.9993
lfingers 7.12502
lthumb 24.4538 44.4584
rfemur -41.4644 2.72064 35.1544
rtibia 30.5369
rfoot -26.8884 -30.2919
rtoes 18.0218
lfemur -20.2078 22.1087 -27.0124
ltibia 42.0978
lfoot 33.3484 38.8518
ltoes 25.3481
